<?xml version="1.0" encoding="UTF-8" standalone="no"?>
<!-- Created with Inkscape (http://www.inkscape.org/) -->

<svg
   xmlns:dc="http://purl.org/dc/elements/1.1/"
   xmlns:cc="http://creativecommons.org/ns#"
   xmlns:rdf="http://www.w3.org/1999/02/22-rdf-syntax-ns#"
   xmlns:svg="http://www.w3.org/2000/svg"
   xmlns="http://www.w3.org/2000/svg"
   xmlns:sodipodi="http://sodipodi.sourceforge.net/DTD/sodipodi-0.dtd"
   xmlns:inkscape="http://www.inkscape.org/namespaces/inkscape"
   version="1.1"
   id="svg106"
   width="57.599995"
   height="57.599998"
   viewBox="0 0 57.599994 57.599998"
   sodipodi:docname="cart-btn-icon.svg"
   inkscape:version="0.92.4 (unknown)">
  <path
     style="stroke-width:0.31999999"
     d="m 14.710383,56.879998 c -4.199282,-2.121411 -4.199282,-7.958588 0,-10.08 0.783872,-0.396 1.940198,-0.72 2.569612,-0.72 0.629415,0 1.785741,0.324 2.569613,0.72 4.199282,2.121412 4.199282,7.958589 0,10.08 -0.783872,0.396 -1.940198,0.72 -2.569613,0.72 -0.629414,0 -1.78574,-0.324 -2.569612,-0.72 z m 28.799999,0 c -2.301303,-1.162582 -3.528125,-3.619366 -3.058208,-6.12424 0.466982,-2.489232 3.098723,-4.67576 5.62782,-4.67576 0.629415,0 1.785741,0.324 2.569613,0.72 4.19928,2.121412 4.19928,7.958589 0,10.08 -0.783872,0.396 -1.940198,0.72 -2.569613,0.72 -0.629414,0 -1.78574,-0.324 -2.569612,-0.72 z M 14.82116,42.578091 c -2.025372,-0.919548 -3.142578,-2.807718 -3.135881,-5.299894 0.0049,-1.84072 0.142615,-2.203251 2.16,-5.688103 1.185094,-2.047144 2.154716,-3.847206 2.154716,-4.000139 0,-0.152933 -2.28087,-5.091237 -5.068601,-10.974008 L 5.862793,5.9199998 2.931394,5.8279915 0,5.7359832 V 2.8679916 0 h 4.754417 4.754421 l 1.319314,2.8799999 1.319314,2.8799999 h 21.591207 c 15.142211,0 21.824115,0.1061194 22.370979,0.355287 0.829766,0.3780679 1.490342,1.5066061 1.490342,2.5461289 0,0.347216 -0.334854,1.1684403 -0.744122,1.8249433 -0.409267,0.656502 -2.880035,5.08164 -5.490598,9.83364 -2.610563,4.752 -5.119708,9.053735 -5.575878,9.559411 -1.586374,1.758535 -1.915149,1.800589 -14.076709,1.800589 H 20.524824 l -1.331802,2.412633 c -0.732492,1.326948 -1.251098,2.622948 -1.152458,2.88 0.154114,0.401616 2.544279,0.467367 16.989389,0.467367 h 16.810041 v 2.88 2.879999 l -17.839999,-0.007 c -16.833768,-0.0066 -17.915514,-0.04131 -19.178835,-0.61488 z"
     id="path116"
     inkscape:connector-curvature="0" />
</svg>
